<?xml version="1.0" encoding="utf-8"?>
<!-- Generator: Adobe Illustrator 26.0.3, SVG Export Plug-In . SVG Version: 6.00 Build 0)  -->
<svg version="1.1" id="Layer_1" xmlns="http://www.w3.org/2000/svg" xmlns:xlink="http://www.w3.org/1999/xlink" x="0px" y="0px"
	 viewBox="0 0 500 500" style="enable-background:new 0 0 500 500;" xml:space="preserve">
<style type="text/css">
	.st0{fill:#FFFFFF;}
	.st1{fill:#334064;}
</style>
<g>
	<path class="st0" d="M500,385.7c-0.3,0.7-0.7,1.4-0.9,2.2c-4.5,18.9-19.6,31-39.1,31c-62.5,0-125,0-187.5,0
		c-76.8,0-153.6,0-230.5,0c-25.7,0-42-16.3-42-42.1C0,292.2,0,207.6,0,123c0-25.5,16.3-41.9,41.7-41.9c15.6,0,31.2,0,46.9,0
		c7.5,0,12,3.7,12,9.8c0,6-4.6,9.7-12.1,9.7c-15.1,0-30.3,0-45.4,0c-1.4,0-2.8,0-5.2,0c1.7,1.9,2.7,3,3.8,4.1
		C100.8,163.9,160,223,219.1,282.2c18.2,18.2,43.4,18.3,61.6,0.1c43.8-43.7,87.5-87.4,131.2-131.2c0.9-0.9,1.7-1.9,3.4-3.6
		c-2.6,0-4.3,0-5.9,0c-32.7,0-65.4,0-98.1,0c-1.6,0-3.3,0.1-4.9-0.1c-4.9-0.7-8.6-5.1-8.4-9.9c0.1-4.6,3.8-8.7,8.5-9.3
		c1.6-0.2,3.2-0.1,4.9-0.1c39.7,0,79.4,0,119.1,0.1c3.4,0,5.7-0.9,8.1-3.3c7.6-7.8,15.4-15.4,24.2-24.1c-3.2,0-5,0-6.9,0
		c-91.1,0-182.3,0-273.4,0c-1.8,0-3.6,0.1-5.4-0.1c-5.2-0.6-9.1-4.8-9-9.8c0.1-5,4-9.1,9.3-9.5c1.6-0.1,3.3-0.1,4.9-0.1
		c91.6,0,183.3,0,274.9,0c23,0,36.3,10.2,42.4,32.4c0.1,0.3,0.4,0.5,0.6,0.8C500,204.8,500,295.3,500,385.7z M327.9,262.6
		c-11.2,11.3-22.8,23.2-34.6,34.8c-24.5,24-61.9,24-86.5,0.1c-10.6-10.3-21-20.9-31.4-31.4c-1.3-1.3-2.7-2.6-3.6-3.4
		c-45.6,45.6-90.8,90.9-136.2,136.3c142.9,0,286,0,428.7,0C419,353.6,373.7,308.4,327.9,262.6z M20.2,382.9
		c45.1-45.1,90.4-90.4,135-135C110.9,203.5,65.9,158.5,21,113.7C19.3,117.5,18.5,377.4,20.2,382.9z M480.1,383.8
		c0.1-1.8,0.4-3.4,0.4-5c0-86.1,0-172.1,0-258.2c0-2.6-0.8-5.2-1.2-7.8c-45.4,45.4-90.4,90.4-135.1,135
		C389.1,292.8,434.4,338.1,480.1,383.8z"/>
	<path class="st0" d="M276.5,137.8c0,5.4-4.2,9.6-9.5,9.6c-5.4,0.1-10-4.5-10-9.8c0.1-5.2,4.5-9.6,9.7-9.6
		C272.2,127.9,276.6,132.2,276.5,137.8z"/>
	<path class="st0" d="M143.9,90.7c0,5.5-4.4,9.9-9.9,9.8c-5.2-0.1-9.6-4.5-9.6-9.7c0-5.4,4.5-9.9,10-9.8
		C139.7,81.2,143.9,85.4,143.9,90.7z"/>
</g>
</svg>
