<?xml version="1.0" encoding="utf-8"?>
<!-- Generator: Adobe Illustrator 26.0.3, SVG Export Plug-In . SVG Version: 6.00 Build 0)  -->
<svg version="1.1" id="Layer_1" xmlns="http://www.w3.org/2000/svg" xmlns:xlink="http://www.w3.org/1999/xlink" x="0px" y="0px"
	 viewBox="0 0 500 500" style="enable-background:new 0 0 500 500;" xml:space="preserve">
<style type="text/css">
	.st0{fill:#334064;}
</style>
<g>
	<path class="st0" d="M264.6,0c9.7,1.3,19.4,2.2,29,3.9c40,6.8,76,22.9,108.3,47.5c5.5,4.2,6.7,9.6,3.3,14.4
		c-3.4,4.8-9.5,5.4-15,1.2c-25.6-19.4-53.8-33.3-85.1-40.9C182.2-3.6,57.6,69.8,27.2,192.6c-21.7,87.3,1.5,163.3,66.1,226.3
		c1,1,2.2,1.9,2.9,2.5c25.8-80.4,78.8-125.1,165-121.8c67.5,2.6,125.8,52.4,141.8,122.4c1.3-1,2.4-1.8,3.4-2.7
		c43.8-41,68.5-91.4,73.3-151.3c3.9-48.3-6.7-93.3-31.1-135.2c-0.5-0.8-1-1.7-1.4-2.6c-2.6-5.2-1.2-10.5,3.3-13.2
		c4.7-2.9,10.7-1.7,13.4,3.6c6.8,13.1,13.8,26.2,19.4,39.8c9.2,22.4,14.1,45.9,15.9,70.1c0.1,1.3,0.5,2.5,0.8,3.8
		c0,10.4,0,20.8,0,31.2c-0.4,3.2-0.8,6.4-1.2,9.6c-5.7,52.6-25.5,99.2-60.5,139c-38.8,44.2-87.3,71.7-145.3,82
		c-9.1,1.6-18.3,2.5-27.4,3.8c-10.4,0-20.8,0-31.2,0c-1.2-0.3-2.5-0.7-3.8-0.8c-42.5-3.3-81.8-16.3-117.3-39.9
		C53.6,419.3,16.9,363.9,3.8,293.1C2.1,284,1.3,274.8,0,265.6c0-10.4,0-20.8,0-31.2c1.6-11.1,2.8-22.2,4.8-33.2
		C23.5,101.4,106.4,20.4,206.4,3.8c9.3-1.5,18.6-2.6,27.9-3.8C244.5,0,254.6,0,264.6,0z M249.1,480.5c46.4-0.3,88.4-12.4,126.6-37.3
		c10.3-6.7,10.3-6.7,7.5-18.9c-19.1-80.7-102.6-126.3-180.4-97.5c-48.4,17.9-77,53.6-87.5,104c-0.8,3.9-0.1,6.4,3.5,8.8
		C158.4,466.7,202.1,480.1,249.1,480.5z"/>
	<path class="st0" d="M250.2,103.5c48.4,0.1,87.8,39.6,87.7,88.1c-0.1,48.4-39.6,87.8-88.1,87.7c-48.4-0.1-87.8-39.6-87.7-88.1
		C162.2,142.8,201.7,103.4,250.2,103.5z M249.9,259.8c37.6,0,68.4-30.6,68.4-68.2c0.1-37.6-30.5-68.4-68.1-68.5
		c-37.9-0.1-68.7,30.6-68.7,68.4C181.7,229,212.4,259.7,249.9,259.8z"/>
	<path class="st0" d="M439.4,89.8c0,5.4-4.5,9.9-9.9,9.8c-5.2-0.1-9.5-4.5-9.5-9.7c0-5.4,4.5-9.9,9.9-9.8
		C435.1,80.2,439.4,84.6,439.4,89.8z"/>
</g>
</svg>
