<?xml version="1.0" encoding="utf-8"?>
<!-- Generator: Adobe Illustrator 26.0.3, SVG Export Plug-In . SVG Version: 6.00 Build 0)  -->
<svg version="1.1" id="Layer_1" xmlns="http://www.w3.org/2000/svg" xmlns:xlink="http://www.w3.org/1999/xlink" x="0px" y="0px"
	 viewBox="0 0 500 500" style="enable-background:new 0 0 500 500;" xml:space="preserve">
<style type="text/css">
	.st0{fill:#334064;}
	.st1{fill:#FFFFFF;}
</style>
<g>
	<path class="st1" d="M377.2,0c4.2,0,8.5,0,12.7,0c16,5.6,19.1,18.3,17.2,33.4c10.2,0,19.3,0,28.4,0c24.5,0,39.8,15.2,39.8,39.5
		c0,129.2,0,258.4,0,387.6c0,3.6-0.1,7.2-0.9,10.7c-4,17.8-18.5,28.8-37.8,28.8c-111.7,0-223.3,0-335,0c-13.7,0-27.4,0.1-41.1-0.1
		c-15.5-0.2-29.2-10.3-33.8-25c-1.4-4.6-1.9-9.6-1.9-14.4c-0.1-129.2-0.1-258.4-0.1-387.6c0-1.6,0-3.3,0.1-4.9
		c1.2-15.2,8.9-26,23-31.7c5-2,10.7-2.6,16.2-2.8c9.4-0.4,18.8-0.1,28-0.1c0.4-0.9,0.6-1.1,0.6-1.4c0.1-1.1,0.2-2.3,0.1-3.4
		C91.5,14.8,96.7,4.9,110.1,0c4.2,0,8.5,0,12.7,0c16.4,5.2,19.4,17.9,17.6,33.1c73.3,0,145.8,0,218.9,0c0-2.3-0.1-4.4,0-6.5
		c0.2-3.5,0.1-7.2,1-10.6C362.6,7.3,369.1,2.8,377.2,0z M39.6,152.8c-0.1,1.9-0.3,3-0.3,4.1c0,91.9,0,183.9,0,275.8
		c0,14.4,9.2,23.3,23.7,23.3c93.9,0,187.8,0,281.8,0c12,0,18.6-6.7,18.6-18.8c0-14.8,0-29.6,0-44.4c0-20.5,13-33.5,33.6-33.6
		c14.5-0.1,29,0,43.5,0c13.8,0,20-6.1,20-19.9c0-60.2,0-120.4,0-180.6c0-1.7,0-3.5,0-5.8c-2.9,0-5.1,0-7.4,0c-100,0-199.9,0-299.9,0
		c-2.3,0-4.6,0.1-6.8-0.3c-3.7-0.6-5.7-3.3-5.8-6.8c-0.1-3.6,1.8-6.3,5.5-7.1c2.2-0.5,4.5-0.4,6.8-0.4c100.1,0,200.2,0,300.4,0
		c2.2,0,4.4,0,6.9,0c0.1-2.1,0.3-3.5,0.3-4.9c0-20.3,0.1-40.7,0-61c0-15.3-9-24.1-24.4-24.1c-19.1,0-38.2,0-57.2,0
		c-1.5,0-3.1,0.1-4.9,0.2c0,6.6,0,12.6,0,18.6c0,7.6,1,8.7,8.5,10.4c4.2,1,6.7,4.2,6.3,8c-0.4,3.8-3.6,6.4-7.9,6.4
		c-1.5,0-2.9-0.2-4.4-0.5c-10.1-2.4-16.9-10.7-17.2-21c-0.2-7.3,0-14.5,0-21.9c-84.4,0-168.1,0-252.1,0c0,6.4,0,12.4,0,18.4
		c0,7.2,1.4,8.8,8.6,10.5c4.2,0.9,6.7,4.1,6.3,8c-0.4,4-3.3,6.5-7.8,6.5c-1.5,0-2.9-0.2-4.4-0.5c-10.5-2.5-17.2-11.1-17.4-22.4
		c-0.1-6.8,0-13.6,0-20.9c-9.9,0-19.1,0-28.4,0c-16.1,0-24.9,8.7-24.9,24.6c0,20,0,40,0,60.1c0,1.7,0.2,3.4,0.2,5.4
		c2.6,0,4.5,0,6.4,0c23,0,46,0,69,0c1.9,0,4,0,5.8,0.5c3.4,0.9,5.1,3.4,5,6.9c0,3.5-1.8,5.9-5.2,6.8c-1.9,0.5-3.9,0.4-5.8,0.4
		c-23,0-46,0-69,0C43.9,152.8,42,152.8,39.6,152.8z M460.6,384.5c-2.2,2.1-3.5,3.2-4.8,4.5c-22.8,22.8-45.8,45.4-68.4,68.4
		c-9,9.2-19.4,13.4-32.3,13.4c-95.1-0.2-190.1-0.1-285.2,0c-10.6,0-20.9-0.3-30.7-7.4c0.4,2.7,0.5,4.4,0.9,6.1
		c2.9,9.9,11.3,15.9,22.5,15.9c124.7,0,249.5,0,374.2,0c14.5,0,23.5-8.9,23.7-23.3c0.1-12.2,0-24.4,0-36.6
		C460.6,412.2,460.6,399,460.6,384.5z M448.9,373.7c-16.9,0-34.7-0.1-52.5,0c-11.5,0.1-18.1,6.8-18.2,18.3c0,15.3,0,30.6,0,45.9
		c0,2.3,0,4.6,0,6.4C402,420.6,425.8,396.9,448.9,373.7z M125.9,33.1c0-4,0.6-7.7-0.2-11.1c-0.6-2.5-2.5-5.8-4.7-6.6
		c-6.6-2.5-14.1-0.3-13.7,8.8c0.1,2.9,0,5.8,0,8.9C113.7,33.1,119.5,33.1,125.9,33.1z M374,33.1c6.7,0,12.5,0,18.8,0
		c-0.9-6,2.6-13-3.8-16.8c-2.9-1.7-8.5-1.7-11.4,0C371.2,20.1,375,27.1,374,33.1z"/>
	<path class="st1" d="M100.6,336c-5.9,0-11.7,0.1-17.6,0c-8.1-0.2-14-5.6-14.1-13.8c-0.3-11.9-0.2-23.8,0-35.6
		c0.2-7.9,5.6-13.6,13.6-13.9c11.9-0.4,23.8-0.4,35.7,0c8.4,0.2,13.9,6.1,14.1,14.6c0.2,11.4,0.3,22.8,0,34.2
		c-0.2,8.9-6.1,14.5-15,14.6C111.7,336.1,106.1,336,100.6,336z M117.4,287.5c-11.5,0-22.5,0-33.6,0c0,11.4,0,22.5,0,33.6
		c11.4,0,22.3,0,33.6,0C117.4,309.8,117.4,298.9,117.4,287.5z"/>
	<path class="st1" d="M299.8,336c-5.5,0-11.1,0.1-16.6,0c-8.8-0.1-14.7-5.3-15-14c-0.4-11.7-0.4-23.4,0-35.1
		c0.3-8.5,5.9-14,14.4-14.2c11.6-0.3,23.2-0.3,34.7,0c8.7,0.2,14.1,6.1,14.3,14.8c0.2,11.2,0.2,22.5,0,33.7
		c-0.1,9.2-5.9,14.8-15.1,14.9C310.9,336.1,305.3,336,299.8,336z M316.6,321.1c0-11.4,0-22.4,0-33.6c-11.3,0-22.3,0-33.6,0
		c0,11.2,0,22.3,0,33.6C294.2,321.1,305.2,321.1,316.6,321.1z"/>
	<path class="st1" d="M200.2,336c-5.7,0-11.4,0.1-17.1,0c-8.5-0.1-14.3-5.4-14.5-13.9c-0.3-11.9-0.3-23.8,0-35.6
		c0.2-8,5.6-13.5,13.7-13.8c11.9-0.4,23.8-0.4,35.7,0c8.2,0.3,13.7,5.9,13.9,14.2c0.3,11.7,0.3,23.4,0,35.1c-0.2,8.6-6.3,13.9-15,14
		C211.3,336.1,205.7,336,200.2,336z M183.4,287.5c0,11.4,0,22.4,0,33.6c11.3,0,22.3,0,33.5,0c0-11.3,0-22.4,0-33.6
		C205.6,287.5,194.6,287.5,183.4,287.5z"/>
	<path class="st1" d="M68.8,213.8c0-5.9-0.2-11.7,0-17.6c0.3-8,5.4-13.7,13.4-13.9c12-0.4,24.1-0.4,36.2,0c8,0.2,13.5,5.7,13.7,13.7
		c0.4,11.9,0.4,23.8,0,35.6c-0.2,8.2-6,13.6-14.2,13.8c-11.7,0.3-23.5,0.3-35.2,0c-8.2-0.2-13.6-5.8-13.9-14
		C68.6,225.5,68.8,219.7,68.8,213.8z M117.3,230.7c0-11.5,0-22.4,0-33.5c-11.4,0-22.5,0-33.5,0c0,11.4,0,22.4,0,33.5
		C95,230.7,105.9,230.7,117.3,230.7z"/>
	<path class="st1" d="M199.8,245.5c-5.4,0-10.8,0.1-16.1,0c-9.4-0.2-15.1-5.6-15.2-14.8c-0.2-11.2-0.2-22.5,0-33.7
		c0.2-9.1,5.6-14.6,14.6-14.9c11.4-0.3,22.8-0.3,34.2,0c9,0.2,14.4,5.9,14.6,15c0.2,11.1,0.2,22.1,0,33.2
		c-0.2,9.5-5.8,14.9-15.5,15.2C210.9,245.6,205.4,245.5,199.8,245.5z M216.9,230.6c0-11.4,0-22.5,0-33.5c-11.4,0-22.4,0-33.5,0
		c0,11.3,0,22.3,0,33.5C194.7,230.6,205.7,230.6,216.9,230.6z"/>
	<path class="st1" d="M431.3,214.1c0,5.5,0.1,11.1,0,16.6c-0.2,8.8-5.6,14.5-14.3,14.7c-11.6,0.3-23.2,0.2-34.7,0
		c-8.5-0.2-14.2-5.5-14.4-14.1c-0.4-11.7-0.4-23.4,0-35.1c0.3-8.5,5.9-13.8,14.5-14c11.4-0.3,22.8-0.3,34.2,0
		c9.3,0.2,14.5,5.9,14.7,15.3C431.4,203,431.3,208.5,431.3,214.1z M382.4,197c0,10.8-0.1,21,0.1,31.2c0,0.9,1.3,2.5,2.1,2.5
		c10.5,0.2,21,0.1,31.8,0.1c0-11.6,0-22.6,0-33.8C405.1,197,394.1,197,382.4,197z"/>
	<path class="st1" d="M431.3,306.6c0,5.5,0.1,11.1,0,16.6c-0.2,9.1-5.6,14.8-14.5,15c-11.4,0.2-22.8,0.2-34.2,0
		c-8.8-0.2-14.4-5.6-14.7-14.4c-0.3-11.5-0.3-23.1,0-34.7c0.3-8.8,5.9-14.1,14.8-14.3c11.2-0.3,22.5-0.3,33.7,0
		c9.4,0.2,14.7,5.8,14.9,15.1C431.4,295.5,431.3,301.1,431.3,306.6z M382.7,289.8c0,11.3,0,22.2,0,33.5c11.3,0,22.4,0,33.6,0
		c0-11.4,0-22.3,0-33.5C405,289.8,394,289.8,382.7,289.8z"/>
	<path class="st1" d="M331.6,213.6c0,5.7,0.1,11.4,0,17.1c-0.3,9-5.8,14.6-14.8,14.8c-11.2,0.2-22.5,0.2-33.7,0
		c-9-0.2-14.7-5.6-14.9-14.6c-0.3-11.4-0.3-22.8,0-34.2c0.2-8.8,5.7-14.3,14.5-14.5c11.4-0.3,22.8-0.3,34.2,0
		c9.1,0.2,14.4,5.8,14.7,14.9C331.7,202.5,331.6,208.1,331.6,213.6z M316.7,197c-11.6,0-22.5,0-33.7,0c0,11.3,0,22.3,0,33.4
		c11.4,0,22.5,0,33.7,0C316.7,219.2,316.7,208.3,316.7,197z"/>
	<path class="st1" d="M100.1,426.7c-5.5,0-11.1,0.1-16.6,0c-8.6-0.2-14.5-5.7-14.7-14.2c-0.2-11.7-0.2-23.4,0-35.1
		c0.2-8.3,6-13.9,14.4-14.1c11.4-0.2,22.8-0.1,34.2,0c8.6,0.1,14.6,5.7,14.8,14.2c0.3,11.7,0.3,23.4,0,35.1c-0.3,8.5-6.4,14-15,14.1
		C111.5,426.8,105.8,426.7,100.1,426.7z M83.5,411.7c11.6,0,22.7,0,33.8,0c0-11.4,0-22.4,0-33.4c-11.4,0-22.6,0-33.8,0
		C83.5,389.5,83.5,400.4,83.5,411.7z"/>
	<path class="st1" d="M200.6,363.3c5.5,0,11.1-0.1,16.6,0c8.4,0.2,14.4,5.6,14.6,13.9c0.4,11.8,0.4,23.7,0,35.6
		c-0.2,8.5-6.4,13.9-15,14c-11.1,0.1-22.1,0.1-33.2,0c-9-0.1-14.9-5.5-15.1-14.4c-0.3-11.5-0.3-23.1,0-34.6c0.2-8.9,6-14.3,15-14.5
		C189.2,363.2,194.9,363.3,200.6,363.3z M183.5,378c0,11.5,0,22.6,0,33.7c11.4,0,22.4,0,33.4,0c0-11.4,0-22.5,0-33.7
		C205.6,378,194.8,378,183.5,378z"/>
	<path class="st1" d="M316.7,412.1c0-11.6,0-22.6,0-33.9c-11.2,0-22.2,0-34.1,0c0,3,0.1,6,0,9c-0.3,4.8-3,7.5-7.2,7.5
		c-4.2,0-6.9-2.7-7.3-7.5c0-0.5,0-1,0-1.5c-1-15.6,2.9-23.7,21.8-22.6c8.8,0.5,17.6,0,26.4,0.1c9.5,0.1,15.2,5.7,15.3,15.2
		c0.1,10.9,0.1,21.8,0,32.7c-0.1,9.8-5.9,15.4-15.6,15.5c-11.1,0.1-22.2,0.1-33.3,0c-7.9-0.1-13.9-5.6-14.5-13
		c-0.3-3.9,1.1-6.8,4.8-8.1c3.9-1.3,6.9,0.3,9.1,3.8c0.7,1.1,2.1,2.5,3.2,2.5C295.6,412.1,305.8,412.1,316.7,412.1z"/>
</g>
</svg>
