<?xml version="1.0" encoding="utf-8"?>
<!-- Generator: Adobe Illustrator 26.0.3, SVG Export Plug-In . SVG Version: 6.00 Build 0)  -->
<svg version="1.1" id="Layer_1" xmlns="http://www.w3.org/2000/svg" xmlns:xlink="http://www.w3.org/1999/xlink" x="0px" y="0px"
	 viewBox="0 0 500 500" style="enable-background:new 0 0 500 500;" xml:space="preserve">
<style type="text/css">
	.st0{fill:#334064;}
</style>
<g>
	<path class="st0" d="M25,369.1c0-2.2,0-4.3,0-6.4c0-85.5,0-170.9,0-256.4c0-13.7,7.3-23.8,19.6-27c2.7-0.7,5.5-0.8,8.3-0.8
		c131.3,0,262.7,0,394,0c17.4,0,28,10.8,28,28.3c0,85.3,0,170.6,0,255.9c0,2.1,0,4.2,0,7.1c5.3,0,10.3,0,15.3,0
		c7.2,0.1,9.8,2.5,9.7,9.8c0,6.8,0.3,13.7-0.7,20.4c-1.9,12.5-12.2,21-24.9,21.4c-1.2,0-2.5,0-3.7,0c-147.1,0-294.2,0-441.3,0.1
		c-8.5,0-15.9-1.9-21.9-8.1c-5-5.2-7.3-11.5-7.4-18.6c-0.1-5.3-0.1-10.5,0-15.8c0.1-6.9,2.6-9.3,9.7-9.4c4.6,0,9.1,0,13.7-0.1
		C23.7,369.7,24,369.5,25,369.1z M39.8,369.7c2.8,0,4.8,0,6.9,0c47.6,0,95.3,0,142.9,0c1.6,0,3.2,0,4.7,0c4.5,0.2,7.2,2.4,7.7,7
		c0.2,1.3,0.4,2.7,0.6,4c31.8,0,63.3,0,94.6,0c2.5-11,2.5-11,14.1-11c47.5,0,94.9,0,142.4,0c2,0,4.1,0,6.6,0c0-2.5,0-4.4,0-6.3
		c0-85,0-169.9,0-254.9c0-12.1-3.4-15.5-15.7-15.5c-129.6,0-259.2,0-388.8,0c-12.6,0-15.9,3.3-15.9,15.8c0,84.8,0,169.6,0,254.3
		C39.8,365.2,39.8,367.1,39.8,369.7z M15.1,384.7c-1.2,14.7-0.7,22.3,19.5,22.3c144.5-0.4,289-0.2,433.5-0.2c1.9,0,3.9,0.1,5.8-0.1
		c6.2-0.3,10.6-4.2,11.2-10.4c0.4-3.8,0.1-7.6,0.1-11.6c-57.7,0-114.8,0-172,0c-1.6,10.1-2.8,11.1-13,11.1c-8.2,0-16.5,0-24.7,0
		c-26.1,0-52.2,0-78.3,0c-6.9,0-9.1-2-9.9-8.7c-0.1-0.8-0.3-1.6-0.5-2.3C129.5,384.7,72.4,384.7,15.1,384.7z"/>
	<path class="st0" d="M250,106.7c61.6,0,123.3,0,184.9,0c10.4,0,11.8,1.4,11.8,11.9c0,75.3,0,150.6,0,225.9c0,10-1.6,11.7-11.4,11.7
		c-123.5,0-246.9,0-370.4,0c-9.8,0-11.5-1.7-11.5-11.6c0-75.3,0-150.6,0-225.9c0-10.7,1.3-11.9,12.2-11.9
		C127,106.7,188.5,106.7,250,106.7z M68.5,121.7c0,73.3,0,146.4,0,219.4c121.3,0,242.2,0,363.2,0c0-73.3,0-146.2,0-219.4
		C310.5,121.7,189.6,121.7,68.5,121.7z"/>
</g>
</svg>
