<?xml version="1.0" encoding="utf-8"?>
<!-- Generator: Adobe Illustrator 26.0.3, SVG Export Plug-In . SVG Version: 6.00 Build 0)  -->
<svg version="1.1" id="Layer_1" xmlns="http://www.w3.org/2000/svg" xmlns:xlink="http://www.w3.org/1999/xlink" x="0px" y="0px"
	 viewBox="0 0 500 500" style="enable-background:new 0 0 500 500;" xml:space="preserve">
<style type="text/css">
	.st0{fill:#334064;}
</style>
<g>
	<path class="st0" d="M373.8,500c-7-1.1-14.1-2.1-21-3.4c-27.2-5.1-52.6-15.3-77.3-27.4c-40.5-19.9-78.1-44.2-111.8-74.1
		C96,335.2,42.5,265.3,12.4,179.1C5,157.8,0.5,135.9,1,113.2c0.5-21.9,7.6-41.1,23.1-56.8c13.7-13.9,27-28.3,41.6-41.1
		c23.8-20.7,48.2-20.5,71,1.1c23,21.8,45.2,44.4,66.9,67.5c17.8,19,17.7,44.7,0.3,64c-12.2,13.5-25.4,26.1-38.4,38.8
		c-2.6,2.5-2.8,4.3-1.3,7.4c12.9,27.1,31.6,49.9,51.9,71.6c20.6,22.1,43.2,41.8,68.8,58.1c6.7,4.3,13.9,7.7,20.8,11.7
		c2.7,1.6,4.4,1.3,6.6-0.9c10.8-11,21.8-21.9,32.7-32.8c8.6-8.5,18.1-15.3,30.4-17.4c16.5-2.7,30.6,2.6,42.2,14.1
		c21.2,20.9,42.2,41.9,63.2,63c22.6,22.7,24.4,48.4,3.5,72.4c-14.5,16.7-30.4,32-46.5,47.2c-11.4,10.8-25.8,16-41.4,17.9
		c-1.1,0.1-2.2,0.6-3.2,0.9C386.8,500,380.3,500,373.8,500z M26.3,113.5c0.2,26.9,6.5,48.3,14.4,69.3C63.1,242.2,98.8,293,141.6,339
		c41.7,44.9,90.3,80.7,145.3,107.7c27.4,13.4,55.6,24.3,86.3,27.5c18.7,1.9,36.4-0.2,50.5-13.8c14.4-13.8,28.3-28.2,41.9-42.9
		c10.9-11.9,10.7-24-0.5-35.5c-21.7-22.2-43.7-44.1-65.9-65.8c-9-8.8-20.5-8.9-30.5-1.2c-2.3,1.8-4.4,3.8-6.5,5.9
		c-12.1,12-24.1,24.2-36.3,36.2c-7.9,7.8-16.4,9.2-26.3,4.2c-7.1-3.6-14.2-7.2-21-11.3c-32.2-19.3-60.1-43.7-85.3-71.4
		c-21-23-40.1-47.4-53-76c-6.7-14.8-5.4-21.2,6.2-32.4c12.6-12.2,25.3-24.4,37.3-37.2c10.3-10.9,10.2-22.5-0.2-33.4
		c-15.9-16.7-32.4-32.9-48.7-49.3c-6-6-11.9-12-18.2-17.6c-9.8-8.7-21.1-8.9-31.5-0.7c-2,1.6-4,3.4-5.8,5.2
		C68,48.2,56.9,59.6,45.5,70.7C32.2,83.6,25.8,99.1,26.3,113.5z"/>
</g>
</svg>
