<?xml version="1.0" encoding="utf-8"?>
<!-- Generator: Adobe Illustrator 26.0.3, SVG Export Plug-In . SVG Version: 6.00 Build 0)  -->
<svg version="1.1" id="Layer_1" xmlns="http://www.w3.org/2000/svg" xmlns:xlink="http://www.w3.org/1999/xlink" x="0px" y="0px"
	 viewBox="0 0 500 500" style="enable-background:new 0 0 500 500;" xml:space="preserve">
<style type="text/css">
	.st0{fill:#334064;}
</style>
<g>
	<path class="st0" d="M500,307.9c-0.6,1.8-1.3,3.6-1.9,5.5c-4.6,13.5-16.5,21.9-31.7,22.5c-2.6,0.1-5.1,0-6.6,0
		c-2.6,5.7-4.1,10.9-7,15.2c-4.2,6.2-10.7,9.5-18.3,9.6c-11.9,0.2-23.8,0.2-35.6,0c-12.9-0.3-23.7-10.8-23.8-23.8
		c-0.2-45.1-0.2-90.2,0-135.2c0-9.1,4.6-16.2,12.5-20.7c2.4-1.4,3-2.7,2.5-5.3c-9.7-62-56-108.9-117.8-119.4
		c-77.1-13.1-152.1,42.2-162.5,119.9c-0.2,1.4,0.9,3.7,2.1,4.4c8.9,5.4,13,13.3,13,23.5c0,43.3,0,86.6,0,129.9
		c0,16.5-10.3,26.7-26.8,26.8c-1.9,0-3.8,0-6.4,0c0,11.4-0.5,22.4,0.2,33.4c0.4,7,1.5,14.3,3.9,20.9c7.8,22,29.5,37.1,52.8,37.4
		c8,0.1,16-0.1,23.9,0.1c2.8,0.1,3.8-1,4.8-3.5c5.4-13.3,15.4-21.1,29.8-21.4c28.6-0.5,57.3-0.6,85.9,0.1
		c18.5,0.4,32.2,15.6,31.9,33.4c-0.2,17.9-14.2,32.6-32.6,32.9c-28.3,0.5-56.6,0.5-84.9,0c-14.5-0.3-24.8-8-30.2-21.6
		c-1-2.6-2.3-3.3-4.9-3.4c-11.4-0.2-22.9,0.4-34.1-1.1c-34.8-4.5-62.3-35.7-63.1-70.7c-0.3-11.9,0-23.7,0-36.2
		c-2-0.1-3.7-0.2-5.4-0.2c-16.7-0.1-25.5-7.6-28.4-24.9c-2.2,0-4.6,0-6.9,0C13.9,335.5,0.1,321.4,0,300.8c0-20.8,0-41.7,0-62.5
		c0-21.8,13.9-35.7,35.6-35.8c1.8,0,3.6,0,5.1,0c1.5-4.4,2.2-9,4.6-12.4c3-4,7.5-6.9,11.3-10.4c1.2-1.2,2.7-2.7,2.9-4.3
		C72.1,94,117.2,39.1,195.7,14c93.7-30,198.4,22.1,233,114.2c5.8,15.3,9.7,31,11.7,47.2c0.2,1.4,1,3.2,2,3.8
		c11.6,7.2,13.7,10,16.2,23.3c2.9,0,6-0.1,9,0c14.2,0.5,26.3,9.7,30.7,23.2c0.5,1.7,1.1,3.4,1.6,5.1C500,256.5,500,282.2,500,307.9z
		 M108.4,269.4c0-21.6,0-43.2,0-64.9c0-7.2-2.9-10.2-9.9-10.3c-10.1-0.1-20.2-0.1-30.2,0c-6.9,0.1-9.7,2.9-9.7,9.9
		c0,43.4,0,86.8,0,130.2c0,6.9,2.9,9.7,9.8,9.7c9.8,0.1,19.5,0,29.3,0c8,0,10.8-2.8,10.8-10.9C108.4,312,108.4,290.7,108.4,269.4z
		 M441.6,269.3c0-21.8,0-43.6,0-65.4c0-6.7-2.8-9.6-9.4-9.7c-10.2-0.1-20.5-0.1-30.7,0c-6.8,0.1-9.7,3.1-9.7,10
		c0,43.2,0,86.5,0,129.7c0,7.2,3,10.1,10,10.2c9.6,0.1,19.2,0,28.8,0c8.5,0,11.1-2.5,11.1-10.9C441.6,311.9,441.6,290.6,441.6,269.3
		z M423.6,177.3c-8.3-83.8-82.2-158.9-180.3-155.1c-98.5,3.9-161,83.3-166.6,155c5.3,0,10.5,0,15.8,0C99,102.9,164,36.8,248.4,35.9
		c34.5-0.4,66.1,9.6,94,30c37.7,27.6,58.8,65.1,64.9,111.3C412.9,177.3,418,177.3,423.6,177.3z M250.3,444.3
		C250.3,444.3,250.3,444.3,250.3,444.3c-13.8,0-27.7-0.2-41.5,0c-10.1,0.1-17.4,7.4-17.2,16.7c0.1,9.2,7.2,16.4,17,16.5
		c27.5,0.2,55,0.1,82.5,0c5.3,0,9.9-1.9,13.3-6.1c4.2-5.3,5.2-11.1,2.4-17.4c-2.9-6.4-8-9.8-15-9.8
		C278,444.2,264.2,444.3,250.3,444.3z M41.5,219.5c-16.1-2.4-25.7,5.1-25,22.1c0.8,19.2,0.2,38.4,0.2,57.6
		c0,15.2,9.4,22.7,24.8,19.4C41.5,285.7,41.5,252.7,41.5,219.5z M458.5,318.5c15.3,3.3,24.8-4.2,24.8-19.4c0-19.8-0.5-39.7,0.2-59.5
		c0.5-13.5-8.5-23.4-25-19.8C458.5,252.7,458.5,285.7,458.5,318.5z"/>
</g>
</svg>
