<?xml version="1.0" encoding="utf-8"?>
<!-- Generator: Adobe Illustrator 26.0.3, SVG Export Plug-In . SVG Version: 6.00 Build 0)  -->
<svg version="1.1" id="Layer_1" xmlns="http://www.w3.org/2000/svg" xmlns:xlink="http://www.w3.org/1999/xlink" x="0px" y="0px"
	 viewBox="0 0 500 500" style="enable-background:new 0 0 500 500;" xml:space="preserve">
<style type="text/css">
	.st0{fill:#334064;}
	.st1{fill:#FFFFFF;}
</style>
<g>
	<path class="st1" d="M247.8,492.2c-36.7-0.3-79.2-11.4-118.4-34.5c-3.9-2.3-6.9-2.6-11.2-0.8c-31.6,13.7-63.4,27-95.1,40.6
		c-5.9,2.5-11.6,4.4-17-0.7c-5.3-5.1-4.1-10.8-1.8-16.8c12.1-32.4,24-65,36.3-97.4c2-5.2,1.5-9-1.2-13.9
		c-49.6-89.3-50.2-178.3,6.3-264.4C84.8,44.8,141.9,10.7,212.7,2c126.6-15.6,242.8,62.4,276.1,185.8
		c32.6,120.6-27.9,239.9-139.1,286.3C320,486.5,288.8,492.1,247.8,492.2z M35.9,465.3c2.6-0.9,4.3-1.4,5.9-2.1
		c24.3-10.3,48.7-20.3,72.8-31c8.1-3.6,14.4-2.9,22.1,1.7c65.1,39.1,133.7,46.6,204.3,17.6c95.3-39.1,146.9-137.6,128.2-240.4
		C446.5,86,322.8,2.8,198.4,28.8C106,48.1,36.1,127.1,28.8,220.8c-4,51.7,7.9,99.4,36.2,142.9c3.8,5.8,4.6,11.1,2,17.7
		c-8,20.6-15.4,41.4-23.1,62.1C41.3,450.4,38.8,457.4,35.9,465.3z"/>
	<path class="st1" d="M321.5,388.5c-33.7-2.1-63.8-14.5-91.8-32.5c-49.3-31.7-86.4-74-108.8-128.5c-6.4-15.5-9.9-31.7-11.5-48.3
		c-1.5-16,2.4-30.6,11.4-43.8c10.3-15.1,23.3-27.1,40.1-34.6c15.4-6.9,28.9-2.5,37.8,11.7c7.9,12.7,15.7,25.5,23.5,38.4
		c2.3,3.8,4.4,7.7,6.3,11.8c6.2,13.6,4.9,21.9-5.7,32.5c-5.7,5.7-12,11-18.5,15.8c-5.1,3.8-6.2,7.7-2.7,12.8
		c7.4,10.6,14.2,21.8,22.6,31.6c13.7,16.1,29.5,30.2,48.4,40.3c9.3,5,9.3,4.8,15.9-3.1c5.2-6.2,10.4-12.5,16.1-18.3
		c8.3-8.4,18.2-10.3,29-5.4c5.2,2.4,10.2,5,15.1,7.9c12.2,7.3,24.3,14.8,36.4,22.2c15.7,9.5,20.5,23.1,12.1,39.4
		c-13.8,26.6-33.9,45.9-65.2,50.1C328.6,388.9,325.1,388.5,321.5,388.5z M325.3,364.6c18.5,0.4,45.9-20.2,50.5-37.8
		c0.5-1.8-1-5.3-2.6-6.3c-14.6-9.2-29.5-17.9-44.1-27c-4.6-2.8-7.9-2.6-11.3,1.8c-5.1,6.6-10.7,12.8-16,19.1
		c-7.9,9.4-17.9,12-29,7.4c-8.6-3.5-17.1-7.6-24.7-12.8c-23.2-15.8-42.9-35.4-58.7-58.6c-5.3-7.8-9.3-16.6-13-25.3
		c-4.6-11-1.7-20.6,7.4-28.4c6-5.1,12-10.4,18.3-15.2c5.1-3.9,6.1-7.6,2.4-13.2c-8.7-13.6-17.2-27.5-25.3-41.5
		c-3-5.3-6.3-5.5-10.9-2.8c-12.8,7.3-23.5,16.9-30,30.2c-2.7,5.6-4.3,12.4-4.3,18.6c-0.1,16.2,4,31.7,10.2,46.6
		c22.1,52.5,58.5,92.5,107.4,121.2C274.5,354.3,299,363.5,325.3,364.6z"/>
</g>
</svg>
